<svg xmlns="http://www.w3.org/2000/svg" viewBox="0 0 64 80" fill="none">
  <defs>
    <linearGradient id="audio-doc" x1="10" y1="4" x2="52" y2="76" gradientUnits="userSpaceOnUse">
      <stop stop-color="#FFFFFF"/>
      <stop offset="1" stop-color="#FFF1F7"/>
    </linearGradient>
    <linearGradient id="audio-accent" x1="16" y1="14" x2="44" y2="22" gradientUnits="userSpaceOnUse">
      <stop stop-color="#FF8FBC"/>
      <stop offset="1" stop-color="#FF5E8C"/>
    </linearGradient>
    <filter id="audio-shadow" x="4" y="2" width="52" height="78" filterUnits="userSpaceOnUse" color-interpolation-filters="sRGB">
      <feDropShadow dx="0" dy="3" stdDeviation="2.5" flood-color="#000000" flood-opacity=".12"/>
    </filter>
  </defs>
  <g filter="url(#audio-shadow)">
    <path d="M16 4H36L52 20V68C52 72.418 48.418 76 44 76H16C11.582 76 8 72.418 8 68V12C8 7.582 11.582 4 16 4Z" fill="url(#audio-doc)"/>
    <path d="M36 4V16C36 18.209 37.791 20 40 20H52" fill="#FBE1EA"/>
    <path d="M36 4L52 20H40C37.791 20 36 18.209 36 16V4Z" fill="#F6CFDF"/>
    <path d="M16 4.5H35.4L51.5 20.6V68C51.5 72.142 48.142 75.5 44 75.5H16C11.858 75.5 8.5 72.142 8.5 68V12C8.5 7.858 11.858 4.5 16 4.5Z" stroke="#EBD8E1"/>
    <rect x="16" y="14" width="28" height="8" rx="4" fill="url(#audio-accent)"/>
    <circle cx="25.5" cy="53.2" r="4.5" fill="#FF5E8C"/>
    <circle cx="38.4" cy="48.2" r="4.5" fill="#FF5E8C"/>
    <path d="M30.2 50.8V39.2L42.4 35.8V45.8" stroke="#FF5E8C" stroke-width="3.1" stroke-linecap="round" stroke-linejoin="round"/>
    <rect x="16" y="63" width="22" height="3.4" rx="1.7" fill="#EDBED0"/>
  </g>
</svg>
